<svg id="Layer_1" enable-background="new 0 0 512 512" height="512" viewBox="0 0 512 512" width="512" xmlns="http://www.w3.org/2000/svg"><g fill="#66bb6a"><path d="m133.2 130.2c-4.8 0-8.7 3.9-8.7 8.7v234c0 4.8 3.9 8.7 8.7 8.7s8.7-3.9 8.7-8.7v-233.9c0-4.8-3.9-8.8-8.7-8.8z"/><path d="m256 130.2c-4.8 0-8.7 3.9-8.7 8.7v234c0 4.8 3.9 8.7 8.7 8.7s8.7-3.9 8.7-8.7v-233.9c0-4.8-3.9-8.8-8.7-8.8z"/><path d="m177.2 184.8c-4.8 0-8.7 3.9-8.7 8.7v124.9c0 4.8 3.9 8.7 8.7 8.7s8.7-3.9 8.7-8.7v-124.8c0-4.9-3.9-8.8-8.7-8.8z"/><path d="m216.5 217.1c-4.8 0-8.7 3.9-8.7 8.7v60.3c0 4.8 3.9 8.7 8.7 8.7s8.7-3.9 8.7-8.7v-60.3c.1-4.8-3.8-8.7-8.7-8.7z"/><path d="m89.2 184.8c-4.8 0-8.7 3.9-8.7 8.7v124.9c0 4.8 3.9 8.7 8.7 8.7s8.7-3.9 8.7-8.7v-124.8c0-4.9-3.9-8.8-8.7-8.8z"/><path d="m49.7 217.1c-4.8 0-8.7 3.9-8.7 8.7v60.3c0 4.8 3.9 8.7 8.7 8.7s8.7-3.9 8.7-8.7v-60.3c.1-4.8-3.8-8.7-8.7-8.7z"/><path d="m378.8 130.2c-4.8 0-8.7 3.9-8.7 8.7v234c0 4.8 3.9 8.7 8.7 8.7s8.7-3.9 8.7-8.7v-233.9c.1-4.8-3.9-8.8-8.7-8.8z"/><path d="m422.8 184.8c-4.8 0-8.7 3.9-8.7 8.7v124.9c0 4.8 3.9 8.7 8.7 8.7s8.7-3.9 8.7-8.7v-124.8c0-4.9-3.9-8.8-8.7-8.8z"/><path d="m462.3 217.1c-4.8 0-8.7 3.9-8.7 8.7v60.3c0 4.8 3.9 8.7 8.7 8.7 4.7 0 8.6-3.8 8.7-8.6v-60.4c0-4.8-3.9-8.7-8.7-8.7z"/><path d="m334.8 184.8c-4.8 0-8.7 3.9-8.7 8.7v124.9c0 4.8 3.9 8.7 8.7 8.7s8.7-3.9 8.7-8.7v-124.8c.1-4.9-3.8-8.8-8.7-8.8z"/><path d="m295.5 217.1c-4.8 0-8.7 3.9-8.7 8.7v60.3c0 4.8 3.9 8.7 8.7 8.7 4.7 0 8.6-3.8 8.7-8.6v-60.4c0-4.8-3.9-8.7-8.7-8.7z"/></g></svg>